<svg width="50" height="50" viewBox="0 0 50 50" fill="none" xmlns="http://www.w3.org/2000/svg">
<g id="Medium New" clip-path="url(#clip0_326_291)">
<path id="Vector" d="M25.5 14C19.1489 14 14 19.1489 14 25.5C14 31.8511 19.1489 37 25.5 37C31.8511 37 37 31.8511 37 25.5C37 19.1489 31.8511 14 25.5 14ZM33.2351 19.6054C34.4466 21.1915 35.1808 23.1593 35.2255 25.2943C33.2439 24.9197 30.9523 24.7366 28.5214 25.2271C28.2312 24.5535 27.9265 23.882 27.5987 23.2159C30.4592 22.0195 32.2815 20.5369 33.2351 19.6054ZM32.0311 18.293C31.2036 19.0927 29.5016 20.4851 26.7646 21.6099C25.7167 19.6788 24.5207 17.8052 23.2 16.0466C23.9378 15.8665 24.7074 15.7692 25.5 15.7692C28.011 15.7692 30.303 16.7255 32.0311 18.293ZM21.4414 16.6596C22.7931 18.4085 24.0152 20.2812 25.0816 22.2163C22.6962 22.9696 19.6987 23.472 16.0134 23.3433C16.6888 20.3692 18.73 17.9096 21.4414 16.6596ZM15.7692 25.5C15.7692 25.3673 15.7741 25.2351 15.7794 25.1037C16.2712 25.124 16.756 25.1373 17.2262 25.1373C20.7253 25.1373 23.6029 24.5977 25.9326 23.8334C26.2382 24.4478 26.5239 25.067 26.7964 25.688C24.0245 26.6164 21.1296 28.5241 18.3479 32.0895C16.7485 30.3548 15.7692 28.0402 15.7692 25.5ZM19.6629 33.2802C22.2543 29.9218 24.9108 28.1512 27.4718 27.3201C28.3993 29.7125 29.061 32.1107 29.4109 34.4076C28.2131 34.9353 26.8906 35.2308 25.5 35.2308C23.3115 35.2308 21.2901 34.5041 19.6629 33.2802ZM31.0572 33.481C30.6794 31.3318 30.0483 29.1092 29.2017 26.8919C31.2907 26.5279 33.2882 26.7106 35.1021 27.072C34.6704 29.7174 33.1687 32.0063 31.0572 33.481Z" fill="url(#paint0_linear_326_291)"/>
<rect id="Rectangle 12" x="0.5" y="0.5" width="49" height="49" stroke="url(#paint1_radial_326_291)"/>
</g>
<defs>
<linearGradient id="paint0_linear_326_291" x1="35.9853" y1="35.6471" x2="11.0227" y2="23.8021" gradientUnits="userSpaceOnUse">
<stop stop-color="#FFE5A2"/>
<stop offset="0.505208" stop-color="#BF841A"/>
<stop offset="1" stop-color="#FFCD74"/>
</linearGradient>
<radialGradient id="paint1_radial_326_291" cx="0" cy="0" r="1" gradientUnits="userSpaceOnUse" gradientTransform="rotate(50.7106) scale(32.3015 82.1945)">
<stop stop-color="#FFE195"/>
<stop offset="0.177083" stop-color="#F2BB5A" stop-opacity="0.876812"/>
<stop offset="0.359375" stop-color="#BF7A00" stop-opacity="0.75"/>
<stop offset="1" stop-color="#BF7A00" stop-opacity="0"/>
<stop offset="1" stop-color="#0F1218" stop-opacity="0"/>
</radialGradient>
<clipPath id="clip0_326_291">
<rect width="50" height="50" fill="white"/>
</clipPath>
</defs>
</svg>
