<svg width="50" height="50" viewBox="0 0 50 50" fill="none" xmlns="http://www.w3.org/2000/svg">
<g id="Medium New" clip-path="url(#clip0_326_299)">
<rect id="Rectangle 12" x="0.5" y="0.5" width="49" height="49" stroke="url(#paint0_radial_326_299)"/>
<path id="Vector" d="M20.3889 14C16.8661 14 14 16.8661 14 20.3889V30.6111C14 34.1339 16.8661 37 20.3889 37H30.6111C34.1339 37 37 34.1339 37 30.6111V20.3889C37 16.8661 34.1339 14 30.6111 14H20.3889ZM20.3889 16.5556H30.6111C32.7246 16.5556 34.4444 18.2754 34.4444 20.3889V30.6111C34.4444 32.7246 32.7246 34.4444 30.6111 34.4444H20.3889C18.2754 34.4444 16.5556 32.7246 16.5556 30.6111V20.3889C16.5556 18.2754 18.2754 16.5556 20.3889 16.5556ZM31.8889 17.8333C31.55 17.8333 31.225 17.968 30.9854 18.2076C30.7457 18.4472 30.6111 18.7722 30.6111 19.1111C30.6111 19.45 30.7457 19.775 30.9854 20.0146C31.225 20.2543 31.55 20.3889 31.8889 20.3889C32.2278 20.3889 32.5528 20.2543 32.7924 20.0146C33.032 19.775 33.1667 19.45 33.1667 19.1111C33.1667 18.7722 33.032 18.4472 32.7924 18.2076C32.5528 17.968 32.2278 17.8333 31.8889 17.8333ZM25.5 19.1111C21.9772 19.1111 19.1111 21.9772 19.1111 25.5C19.1111 29.0228 21.9772 31.8889 25.5 31.8889C29.0228 31.8889 31.8889 29.0228 31.8889 25.5C31.8889 21.9772 29.0228 19.1111 25.5 19.1111ZM25.5 21.6667C27.6134 21.6667 29.3333 23.3866 29.3333 25.5C29.3333 27.6134 27.6134 29.3333 25.5 29.3333C23.3866 29.3333 21.6667 27.6134 21.6667 25.5C21.6667 23.3866 23.3866 21.6667 25.5 21.6667Z" fill="url(#paint1_linear_326_299)"/>
</g>
<defs>
<radialGradient id="paint0_radial_326_299" cx="0" cy="0" r="1" gradientUnits="userSpaceOnUse" gradientTransform="rotate(50.7106) scale(32.3015 82.1945)">
<stop stop-color="#FFE195"/>
<stop offset="0.177083" stop-color="#F2BB5A" stop-opacity="0.876812"/>
<stop offset="0.359375" stop-color="#BF7A00" stop-opacity="0.75"/>
<stop offset="1" stop-color="#BF7A00" stop-opacity="0"/>
<stop offset="1" stop-color="#0F1218" stop-opacity="0"/>
</radialGradient>
<linearGradient id="paint1_linear_326_299" x1="35.9853" y1="35.6471" x2="11.0227" y2="23.8021" gradientUnits="userSpaceOnUse">
<stop stop-color="#FFE5A2"/>
<stop offset="0.505208" stop-color="#BF841A"/>
<stop offset="1" stop-color="#FFCD74"/>
</linearGradient>
<clipPath id="clip0_326_299">
<rect width="50" height="50" fill="white"/>
</clipPath>
</defs>
</svg>
