<svg width="97" height="107" viewBox="0 0 97 107" fill="none" xmlns="http://www.w3.org/2000/svg">
<g id="Preload">
<path id="Ellipse 4" d="M17.7215 85.6708C7.48972 76.8551 1 63.7255 1 49.0622C1 22.5182 22.2665 1 48.5 1C74.7335 1 96 22.5182 96 49.0622C96 72.1959 79.847 91.5122 58.3308 96.0938" stroke="url(#paint0_radial_35_57)" stroke-linecap="round"/>
<g id="Vector">
<path d="M75.2883 50.7047C75.1522 49.4395 75.3117 47.6288 74.9906 46.6256C74.9906 46.6152 74.9853 46.5945 74.9789 46.5593C74.2846 49.3381 75.1511 52.4108 73.7179 54.9846C72.5123 56.608 72.5484 58.5502 72.6707 60.4603C72.7462 63.6574 72.9896 66.8606 72.9758 70.0555C72.5803 72.533 70.1626 70.0462 68.8177 70.6022C67.5142 71.3269 66.4244 70.421 66.1257 69.13C65.3761 70.6477 65.9779 71.916 67.3685 72.5724C67.9225 72.9285 68.049 74.3324 67.091 74.1584C64.6382 73.7536 62.7936 75.3221 60.5279 75.7321C62.0419 76.5469 66.3659 74.0756 66.1129 77.0293C65.9843 78.5699 63.8121 77.7085 63.3794 79.1507C65.0444 80.5494 64.1864 83.2153 62.2099 83.8675C55.8382 84.9877 49.6791 81.0173 44.2324 78.2593C40.1082 75.6886 37.9382 71.2037 37.1026 66.6473C36.7273 65.6793 40.6366 67.546 41.2288 66.6142C33.8928 65.8149 31.3177 46.7684 41.1629 53.824C42.0868 54.8749 42.5557 56.2156 42.8576 57.5511C42.8576 58.7293 45.387 55.8574 48.2172 57.3969C51.9575 58.6517 54.0722 55.0302 56.811 53.3354C59.25 51.6478 61.9813 50.3071 64.1619 48.311C65.1316 47.4642 61.5879 48.1475 61.0723 46.8316C59.7837 45.4205 57.787 44.586 56.0753 45.7963C54.7218 46.8544 52.5359 48.3721 52.318 49.9779C55.415 46.3595 57.315 45.7331 61.2764 48.6403C61.7974 48.7987 61.6836 49.0606 61.4125 49.306C60.6885 49.9986 59.7029 49.6166 58.8609 49.4095C56.642 48.456 53.8564 49.1124 53.5853 51.6944C54.2009 50.5338 57.5744 49.0937 57.8795 50.6912C54.9451 52.8043 52.6284 57.2084 48.4096 56.1835C46.9573 55.7694 45.0223 55.2631 44.2122 54.0156C46.3385 54.9556 49.4505 55.6721 51.1527 53.7112C43.3829 57.3751 42.426 44.5643 36.6475 48.369C38.9664 48.1123 42.8236 52.2369 39.146 51.2244C36.3041 50.1891 34.6583 54.1067 32.0513 52.6283C29.6007 50.7119 33.5324 52.5071 34.0374 50.8776C34.3181 50.5235 34.065 50.2564 33.6833 50.4489C31.0147 51.1571 30.6511 50.3806 28.8405 49.1776C28.8182 49.5348 29.5178 50.7461 28.7799 50.6125C28.1622 50.6477 26.2601 49.0596 27.0426 50.2936C28.4705 51.8973 31.9769 53.3933 30.9765 55.8843C29.8473 54.3479 29.7293 54.2433 28.882 54.0715C29.3838 55.0312 29.8537 55.9702 29.7995 57.0625C28.7044 56.0168 28.5035 54.0549 26.645 53.6532C25.9082 53.3902 24.9056 52.5682 25.0736 51.7897C26.2282 52.5423 26.9937 52.9554 28.0123 52.6407C26.6609 51.5205 24.7451 50.8827 24.5144 48.6341C24.6855 47.8483 22.7378 44.8428 23.6798 44.9629C24.3608 45.3708 24.8801 45.9911 25.1533 46.7229C28.4939 51.0536 27.4817 47.2685 25.4968 45.1016C24.8663 43.9731 20.9814 41.2254 21.2376 43.8862C22.0594 46.3854 23.229 49.0358 22.3327 51.6789C20.925 54.8262 20.2765 50.0224 20.0596 48.78C19.7512 47.9259 19.9533 46.6152 19.41 45.9982C19.0155 46.4806 19.1973 47.3958 19.1622 48.0243C19.9692 52.5268 18.8433 59.2811 22.3943 63.2339C22.8855 66.0375 24.2613 68.5222 27.065 69.8599C28.513 72.4481 27.5519 76.2622 27.5317 79.2366C27.0565 85.2641 23.2757 90.0276 19.9331 94.8531C11.5657 111.405 23.3831 93.0051 39.5681 98.7707C46.8872 101.161 53.4747 105.492 61.1786 106.772C67.8353 108.596 50.9719 98.954 50.2734 97.0563C49.274 93.7433 51.1112 89.8588 51.3664 86.4061C51.5716 85.3335 51.3356 85.288 52.7485 85.3501C55.8765 85.5157 59.0501 85.6938 62.1472 85.1192C67.2346 84.263 63.6016 79.658 66.115 78.5119C67.4876 78.2334 66.9294 76.7363 67.0198 75.8201C67.1761 75.3956 67.764 75.496 68.1404 75.2952C69.6289 74.6367 67.6598 72.0661 69.8979 72.0557C71.7797 72.3301 74.2719 72.3943 74.0007 69.8288C73.9848 66.2404 73.6339 62.6635 73.6074 59.0751C73.5531 56.1307 75.873 53.7485 75.2883 50.7047ZM26.9289 65.9226C24.5824 64.1067 21.7586 62.3063 22.2508 58.9726C23.2077 60.4955 23.5745 62.0216 25.1512 63.0579C25.6966 63.2681 28.2494 66.5189 26.9289 65.9226ZM27.773 62.5351C25.3436 61.9605 24.3485 59.9199 23.8084 57.723C23.7542 56.4123 20.2116 52.6293 23.5958 54.8386C23.8084 55.0074 23.9051 55.3076 24.2199 55.3449C24.3623 54.9453 23.4756 53.6884 24.34 54.1326C27.5466 55.789 25.5095 59.5834 27.7933 61.8042C28.1484 62.0443 28.5566 62.7825 27.773 62.5351ZM49.6908 85.1544C48.8604 88.6496 48.3926 92.2059 47.7675 95.7373C46.3417 96.9589 43.621 94.7889 42.3452 93.8251C40.1933 92.298 33.4686 83.3312 36.6603 91.3403C36.7475 92.1686 38.3465 94.4607 36.9218 94.5757C31.6271 91.8062 31.1072 84.0156 33.3771 79.1217C34.5296 77.0283 36.9431 77.4279 38.5634 78.7593C41.7434 81.654 46.4385 82.9099 49.6908 85.1544ZM53.5757 51.7027C53.5863 51.7027 53.5948 51.7027 53.5863 51.6872C53.5818 51.6924 53.5775 51.698 53.5736 51.7037L53.5757 51.7027ZM27.3456 48.7831H27.3584C27.3584 48.7831 27.3488 48.7759 27.3456 48.7831Z" fill="white"/>
<path d="M77.6975 37.5439C76.5067 34.8386 74.8492 31.4273 71.3608 31.36C70.9589 31.4025 70.7931 31.1333 70.8037 30.7751C70.96 27.4621 57.2214 35.8708 55.1195 36.3429C53.3546 36.9983 58.2357 33.0227 58.6057 32.4678C62.4757 29.2221 65.7791 24.0383 70.9026 22.8208C71.4278 23.091 71.6585 22.7173 71.6373 22.2162C72.4676 19.1921 69.1653 17.8151 66.6073 17.5625C64.0471 17.5542 63.0785 20.6529 61.6443 22.2825C61.2477 22.9585 60.8235 23.6118 60.0995 22.8426C57.5478 21.2016 55.0344 19.4499 51.8672 19.1786C54.0946 20.2481 57.3139 21.2016 58.1591 23.4741C57.4542 23.1635 56.9269 22.3912 56.1061 22.4388C56.4708 22.8094 57.2948 25.0012 56.4633 24.2361C55.2364 22.2804 53.1132 21.1177 51.0081 20.2543C47.2944 18.8049 45.3434 23.5507 37.967 22.7856C42.5631 24.9525 48.3118 19.806 52.7624 23.3198C52.6327 22.3767 51.393 22.2276 50.9369 21.4698C53.665 21.8238 54.5177 24.4545 56.1369 26.2322C57.4521 27.8762 56.1869 26.7653 55.2779 26.4858C55.7106 27.3927 56.9652 28.3493 56.4952 29.3008C55.9955 29.9147 53.6842 25.4898 52.1978 25.1182C49.2411 23.0579 45.5752 23.9027 42.5408 25.3345C39.3023 26.8523 36.3498 23.0061 33.1603 24.586C30.6192 25.2517 29.6517 28.4591 27.2978 28.983C21.5257 28.7686 29.7198 26.6018 30.498 24.791C31.3486 23.736 32.6074 23.3002 33.6568 22.5268C32.6999 22.3373 31.9705 23.0445 31.0945 23.0983C31.8557 21.5226 34.0204 20.9366 35.7055 20.7647C37.6193 20.6011 39.5171 20.9945 41.4277 21.0525C52.4466 19.572 41.7062 17.0055 37.4396 18.4829C38.9121 18.6765 40.2677 18.8598 41.4096 19.6714C36.6507 18.9923 31.1136 19.6228 28.9043 24.5125C28.3663 25.8874 26.5514 25.5872 25.804 26.7902C24.4591 28.4953 23.4193 30.4003 22.2349 32.2048C21.4311 34.2454 17.8524 39.6424 20.6911 42.1127C21.4162 40.744 22.5453 39.6714 24.3326 40.3723C27.4158 42.2597 24.8067 37.7737 22.9823 38.6641C18.8358 40.6187 23.6032 37.0366 24.3549 36.1793C23.2311 36.3481 22.4709 37.3182 21.463 37.605C22.0807 34.381 23.9732 32.7918 26.6131 30.8372C28.4599 28.9861 29.3572 34.3272 31.17 31.507C32.2034 29.3049 34.9422 28.7686 36.638 27.6422C35.0857 27.5573 33.6057 28.2551 32.3416 29.071C32.2098 29.1548 32.0822 29.3287 31.8483 29.1124C33.8683 26.11 36.1383 25.5426 39.5267 26.7705C43.5668 27.3658 44.293 23.9327 48.8743 27.2778C49.8184 27.9321 55.1078 32.0899 53.0324 32.7463C49.9013 33.5745 47.7398 27.6878 44.4471 29.5027C41.8232 32.2835 39.8477 33.999 35.7587 32.7173C31.7515 32.5744 32.6988 35.2776 27.318 33.5062C26.3611 33.7381 25.1842 34.0632 24.6196 34.8521C26.7216 34.6388 28.9011 34.3934 30.3194 36.3626C31.473 38.0377 34.0076 38.5699 35.4015 36.7539C34.5828 37.019 32.3799 37.2716 32.4575 36.2922C33.2095 36.1466 33.8765 35.728 34.3234 35.1213C35.2962 33.8199 36.9814 34.9919 38.2274 35.2424C41.7445 36.5303 42.5206 31.2865 45.5879 31.2679C46.8 31.3838 48.079 31.8891 48.8838 32.8063C47.389 32.6593 45.7644 31.9781 44.4099 33.0455C43.519 33.9669 47.3741 32.8602 47.5368 34.0694C45.0425 34.2558 41.854 34.3614 40.0466 36.1152C42.56 35.0488 44.3451 37.6826 46.801 37.1194C40.2092 35.1968 46.868 33.795 49.2358 35.8439C54.2328 34.3614 57.9306 29.1962 61.0074 25.1565C63.254 22.8312 65.0646 17.3223 68.9176 20.2408C69.9808 20.744 63.1136 26.1628 62.397 27.4165C59.3563 30.4634 56.2922 33.5424 52.6731 35.9474C51.3026 37.0583 49.3006 37.5201 47.9631 38.3286C51.9044 39.1476 55.6181 36.8678 59.2245 35.642C64.0492 34.3489 71.2524 29.5845 75.0193 34.8459C76.6396 36.8264 77.4061 39.8153 76.6981 42.2783C76.5194 42.5465 76.7608 42.7649 77.0372 42.5703C78.0451 42.2907 78.1079 38.3245 77.6975 37.5439ZM41.4096 19.6714C41.4266 19.6714 41.3575 19.7097 41.3585 19.7118L41.4096 19.6714ZM54.6995 31.2679C52.2914 29.1973 50.536 25.7808 46.9063 24.8624C48.8892 24.2568 50.5584 24.6399 52.0096 25.9205C52.9102 27.05 56.5856 30.0617 54.6995 31.271V31.2679ZM56.7749 27.2105C56.7153 27.1857 56.7058 27.1463 56.7462 27.0956C56.7876 27.1308 56.8259 27.1774 56.7749 27.2136V27.2105ZM52.7794 23.3323L52.7624 23.3198C52.7624 23.3312 52.756 23.3426 52.7517 23.354L52.7794 23.3323ZM44.159 33.4669C44.159 33.4472 44.159 33.442 44.1377 33.4451L44.159 33.4669ZM24.3613 36.1524C24.3618 36.1635 24.3618 36.1745 24.3613 36.1856L24.39 36.1783L24.3613 36.1524Z" fill="white"/>
<path d="M52.4434 47.6754C51.2016 50.2201 48.3522 50.6405 45.8272 49.7605C46.127 51.1726 48.0258 51.9915 49.4165 51.6892C42.6631 56.141 43.5955 39.8764 35.3972 46.8585C34.0225 48.3845 32.18 50.2553 30.162 48.751C29.1297 48.4705 26.5472 44.5974 28.9543 45.9257C34.1947 48.4808 35.5291 39.0544 40.2326 41.1871C39.683 41.7348 38.54 41.7451 38.0871 42.6076C37.5725 43.1977 39.8084 42.9181 40.2294 43.6915C43.6678 47.0749 47.5665 51.5205 52.4434 47.6754Z" fill="white"/>
<path d="M44.764 38.839C47.6697 43.0724 53.4152 40.5784 56.5814 43.6812C52.4817 41.359 47.4262 46.5324 44.1197 42.2524C42.9374 40.3309 41.7806 38.2148 39.146 38.2955C36.0925 38.1319 35.1165 41.4987 33.2985 43.2567C30.5533 46.4806 26.5249 44.1502 26.7375 40.3164C29.7942 46.9724 33.2719 41.1902 36.454 38.3732C39.7404 35.8946 42.8438 39.1207 44.8161 41.5898C46.0919 42.9357 48.4001 43.676 50.1161 42.798C47.7749 42.1727 45.4731 41.6054 44.764 38.839Z" fill="white"/>
<path d="M70.6676 54.9463C67.1283 54.6057 63.5091 55.8688 60.1218 56.7457C61.3168 59.9365 64.8488 57.1391 67.2686 57.1836C67.6365 56.9952 69.1398 57.4155 68.3424 57.7188C66.9826 57.5656 65.7174 58.075 64.4735 58.5305C62.211 58.9446 64.8073 60.8631 65.5834 61.6116C67.1846 63.3354 73.5925 55.6255 70.6676 54.9463ZM67.8831 59.5793C67.7768 62.0806 63.7133 59.8029 64.7222 58.9519C65.5175 58.7945 67.9044 58.1061 67.8831 59.5793Z" fill="white"/>
<path d="M73.3511 37.5749C70.2796 33.9617 69.8149 38.4146 66.619 38.6641C69.1409 40.8165 71.5182 35.2786 73.1374 39.3774C71.2556 37.2033 69.6533 40.4417 67.5918 39.8164C66.3372 39.277 64.768 39.0989 63.8547 38.0232C63.355 37.3699 62.6947 37.4083 62.0026 37.5118C61.6092 37.8296 58.6907 38.2365 59.637 37.4859C60.2654 37.3108 60.8264 36.9581 61.2488 36.4723C62.8776 35.319 64.97 37.6112 66.8189 37.5076C69.0388 37.6888 70.624 31.6054 73.3511 37.5749Z" fill="white"/>
<path d="M43.8464 44.3769C49.2134 48.9126 49.9821 43.589 54.9036 44.0528C54.8313 44.3065 54.6719 44.3137 54.5422 44.3355C53.0282 44.5622 52.1563 45.817 51.1102 46.7622C48.6223 49.5534 44.6789 47.4755 43.8464 44.3769Z" fill="white"/>
<path d="M68.2701 43.6045C68.4519 44.027 68.8868 44.0342 69.1313 44.2827C65.0561 43.9027 66.9082 40.4407 60.2005 41.5122C65.8088 38.4995 66.8816 42.7111 69.3131 42.3601C70.1541 42.0371 71.028 41.5008 71.6149 42.6034C70.2785 42.0992 69.4524 43.2629 68.2701 43.6045Z" fill="white"/>
<path d="M36.3243 56.2197C36.6752 52.5113 41.4872 54.1657 40.2475 57.3368C40.1412 57.5004 40.1412 57.8234 40.4123 57.7737C41.6392 56.8678 41.2278 58.6165 40.8812 59.1755C40.1306 60.3144 38.0105 59.6311 38.422 58.1785C38.4794 57.3006 39.5862 56.3409 38.9387 55.5281C37.968 54.5746 37.0324 55.6472 36.3243 56.2197Z" fill="white"/>
<path d="M38.4954 28.7252C40.0636 29.8888 41.6339 28.3649 43.2383 28.4373C41.4617 29.8164 39.7957 32.5786 37.3067 30.6767C35.9044 29.6652 34.4138 30.9697 33.0635 31.2762C33.5398 30.1663 34.2266 29.6901 35.3324 29.688C36.4966 29.4913 39.8594 31.3186 40.021 29.688C39.4661 29.4271 38.7729 29.3101 38.4954 28.7252Z" fill="white"/>
<path d="M67.8704 45.3449C65.4835 46.345 64.1651 43.6781 61.8102 44.0156C59.9836 44.2734 63.7494 46.6473 64.382 46.8616C62.6809 47.0335 61.7155 45.8512 60.7448 44.673C60.5099 44.3127 59.15 44.057 60.0336 43.7588C64.2736 42.004 64.4575 44.5591 67.8704 45.3449Z" fill="white"/>
<path d="M63.1721 30.3775C64.8615 28.4291 67.8044 27.0863 70.1211 25.7186C71.1184 25.0612 72.0466 27.1132 71.0302 27.3078C68.2276 27.6505 65.5717 29.0337 63.1572 30.3785L63.1721 30.3775Z" fill="white"/>
<path d="M29.0765 39.4727C29.4561 39.6559 29.8325 39.8557 30.3843 39.7056C29.7315 39.1227 28.9341 38.7738 28.7459 37.9797C30.2492 39.3577 32.1481 39.2449 34.0119 39.015C33.4558 40.9987 29.6485 41.7027 29.0765 39.4727Z" fill="white"/>
<path d="M54.6549 38.8639C56.9269 39.3163 58.7386 39.4664 60.9213 39.1797C59.418 41.5619 56.4793 40.9728 54.6549 38.8639Z" fill="white"/>
<path d="M37.7766 60.7047C38.7761 61.5567 39.8616 61.3321 41.0151 61.0049C41.8423 64.5819 36.7549 61.8601 36.7974 59.7698C36.7974 59.7698 37.3992 60.4324 37.7766 60.7047Z" fill="white"/>
<path d="M73.5893 42.6231C71.8648 40.4914 70.1743 41.6654 68.2733 40.9894C70.0499 40.5038 73.3245 39.8516 73.5893 42.6231Z" fill="white"/>
<path d="M24.3836 36.1752L24.5388 36.0717C24.5696 36.2756 24.3283 36.0945 24.3836 36.1752Z" fill="white"/>
<path d="M52.7507 23.3602C52.8144 23.3544 52.878 23.3719 52.9293 23.4092C52.9806 23.4465 53.0158 23.501 53.0282 23.5621C52.941 23.5072 52.8379 23.3126 52.7507 23.3602Z" fill="white"/>
<path d="M73.433 39.6549C73.3384 39.5855 73.2384 39.3536 73.1374 39.3774C73.3107 39.4002 73.3256 39.5679 73.433 39.6549Z" fill="white"/>
<path d="M29.0978 39.4929L29.0223 39.5232C29.0414 39.5124 29.0818 39.4497 29.0978 39.4929Z" fill="white"/>
<path d="M52.4253 47.6961L52.4136 47.6174C52.42 47.636 52.4583 47.6816 52.4253 47.6961Z" fill="white"/>
<path d="M27.3456 48.7831L27.3977 48.719C27.3818 48.7366 27.3754 48.7862 27.3456 48.7831Z" fill="white"/>
<path d="M44.8118 38.8442L44.7491 38.8939C44.9043 38.9478 44.7055 38.8204 44.8118 38.8442Z" fill="white"/>
<path d="M28.7948 37.987L28.7267 38.0408C28.8894 38.104 28.6948 37.958 28.7948 37.987Z" fill="white"/>
<path d="M73.3139 37.5522C73.4553 37.5252 73.3426 37.6681 73.383 37.5346C73.3958 37.4911 73.3352 37.489 73.349 37.5729L73.3139 37.5522Z" fill="white"/>
<path d="M49.2379 35.8439L49.2613 35.9091C49.2496 35.8874 49.1922 35.8625 49.2379 35.8439Z" fill="white"/>
<path d="M44.1377 33.4451C44.0739 33.5704 44.2611 33.4617 44.1292 33.5176C44.0229 33.5538 44.058 33.4141 44.159 33.4669L44.1377 33.4451Z" fill="white"/>
<path d="M38.539 28.7438C38.3976 28.7728 38.5145 28.6206 38.4869 28.7573C38.4805 28.7904 38.5336 28.7894 38.5028 28.7262L38.539 28.7438Z" fill="white"/>
<path d="M53.0335 23.5373L53.0484 23.5869C53.1324 23.4938 53.0282 23.5725 53.0335 23.5373Z" fill="white"/>
<path d="M73.399 39.6331L73.4553 39.6228C73.3575 39.5244 73.4681 39.6901 73.399 39.6331Z" fill="white"/>
</g>
</g>
<defs>
<radialGradient id="paint0_radial_35_57" cx="0" cy="0" r="1" gradientUnits="userSpaceOnUse" gradientTransform="translate(48.5 1.00001) rotate(90) scale(93.9545 59.2873)">
<stop stop-color="#F7D587"/>
<stop offset="0.595199" stop-color="#8A5B08"/>
<stop offset="1" stop-opacity="0"/>
</radialGradient>
</defs>
</svg>
